# xmcd
#
# Track frame offsets: 
#        150
#        13136
#        27183
#        41158
#        63403
#        78916
#        91394
#        103988
#        116056
#        129062
#        144756
#        157529
#        169177
#        181876
#        194440
#        207110
#        221267
#        236680
#        248976
#        261263
#
# Disc length: 3632 seconds
#
# Revision: 0
# Processed by: cddbd v1.5.2PL0 Copyright (c) Steve Scherf et al.
# Submitted via: ExactAudioCopyFreeDBPlugin 1.0
#
DISCID=0b0e2e14
DTITLE=Roy Acuff and The Smoky Mountain Boys - The King Of Country Music
DTITLE=Various Artist - Disc 8
DYEAR=1900
DGENRE=Country
TTITLE0=Were You There When They Crucified My Lord (Take 1)
TTITLE1=Were You There When They Crucified My Lord (Breakdown and Take)
TTITLE2=Sweeter Than The Flowers
TTITLE3=Tennessee Waltz (Breakdown and Take)
TTITLE4=Tennessee Waltz (Breakdown and Take)
TTITLE5=The Pale Horse And His Rider
TTITLE6=Gray Eagle
TTITLE7=Dance Around Molly
TTITLE8=Black Mountain Rag
TTITLE9=Pretty Little Widow (Breakdown and Take)
TTITLE10=Smoky Mountain Rag
TTITLE11=Lonesome Indian
TTITLE12=Bully Of The Town
TTITLE13=Polk County Breakdown
TTITLE14=Jesus Died For Me
TTITLE15=If I Could Hear My Mother Pray Again (Take 1)
TTITLE16=If I Could Hear My Mother Pray Again (False Start and Take)
TTITLE17=The Day They Laid Mary Away (Take 1)
TTITLE18=The Day They Laid Mary Away (Take 2)
TTITLE19=It's All Right Now
EXTD=
EXTT0=
EXTT1=
EXTT2=
EXTT3=
EXTT4=
EXTT5=
EXTT6=
EXTT7=
EXTT8=
EXTT9=
EXTT10=
EXTT11=
EXTT12=
EXTT13=
EXTT14=
EXTT15=
EXTT16=
EXTT17=
EXTT18=
EXTT19=
PLAYORDER=
